<svg width="33" height="32" viewBox="0 0 33 32" fill="none" xmlns="http://www.w3.org/2000/svg">
<path d="M16.5001 26.88C10.4841 26.88 5.62012 22.016 5.62012 16C5.62012 9.984 10.4841 5.12 16.5001 5.12C22.5161 5.12 27.3801 9.984 27.3801 16C27.3801 22.016 22.5161 26.88 16.5001 26.88ZM16.5001 6.4C11.1881 6.4 6.90012 10.688 6.90012 16C6.90012 21.312 11.1881 25.6 16.5001 25.6C21.8121 25.6 26.1001 21.312 26.1001 16C26.1001 10.688 21.8121 6.4 16.5001 6.4Z" fill="#171717"/>
<path d="M10.7402 15.36H22.2602V16.64H10.7402V15.36Z" fill="#171717"/>
<path d="M15.8604 10.24H17.1404V21.76H15.8604V10.24Z" fill="#171717"/>
</svg>
