<svg width="56" height="56" viewBox="0 0 56 56" fill="none" xmlns="http://www.w3.org/2000/svg">
<path d="M28 49C23.8466 49 19.7865 47.7684 16.333 45.4609C12.8796 43.1534 10.188 39.8736 8.59854 36.0364C7.0091 32.1991 6.59323 27.9767 7.40352 23.9031C8.21381 19.8295 10.2139 16.0877 13.1508 13.1508C16.0877 10.2139 19.8295 8.21381 23.9031 7.40352C27.9767 6.59323 32.1991 7.0091 36.0364 8.59854C39.8736 10.188 43.1534 12.8796 45.4609 16.333C47.7684 19.7865 49 23.8466 49 28C49 33.5696 46.7875 38.911 42.8492 42.8492C38.911 46.7875 33.5696 49 28 49ZM28 10.5C24.5388 10.5 21.1554 11.5264 18.2775 13.4493C15.3997 15.3722 13.1567 18.1053 11.8321 21.303C10.5076 24.5008 10.161 28.0194 10.8363 31.4141C11.5115 34.8088 13.1782 37.927 15.6256 40.3744C18.0731 42.8218 21.1913 44.4885 24.5859 45.1637C27.9806 45.839 31.4993 45.4924 34.697 44.1679C37.8947 42.8434 40.6278 40.6003 42.5507 37.7225C44.4737 34.8446 45.5 31.4612 45.5 28C45.5 23.3587 43.6563 18.9075 40.3744 15.6256C37.0925 12.3438 32.6413 10.5 28 10.5Z" fill="#C30000"/>
<path d="M28 30.3332C27.5378 30.3271 27.0961 30.1408 26.7692 29.8139C26.4424 29.487 26.256 29.0454 26.25 28.5832V20.4165C26.25 19.9524 26.4344 19.5073 26.7626 19.1791C27.0908 18.8509 27.5359 18.6665 28 18.6665C28.4641 18.6665 28.9092 18.8509 29.2374 19.1791C29.5656 19.5073 29.75 19.9524 29.75 20.4165V28.5832C29.744 29.0454 29.5576 29.487 29.2308 29.8139C28.9039 30.1408 28.4622 30.3271 28 30.3332ZM28 37.3332C27.5378 37.3271 27.0961 37.1408 26.7692 36.8139C26.4424 36.487 26.256 36.0454 26.25 35.5832V34.4165C26.25 33.9524 26.4344 33.5073 26.7626 33.1791C27.0908 32.8509 27.5359 32.6665 28 32.6665C28.4641 32.6665 28.9092 32.8509 29.2374 33.1791C29.5656 33.5073 29.75 33.9524 29.75 34.4165V35.5832C29.744 36.0454 29.5576 36.487 29.2308 36.8139C28.9039 37.1408 28.4622 37.3271 28 37.3332Z" fill="#C30000"/>
</svg>
