<svg width="44" height="44" viewBox="0 0 44 44" fill="none" xmlns="http://www.w3.org/2000/svg">
<path fill-rule="evenodd" clip-rule="evenodd" d="M0.806396 22.0002C0.806396 16.3793 3.03929 10.9887 7.01386 7.0141C10.9884 3.03953 16.3791 0.806641 22 0.806641C27.6209 0.806641 33.0116 3.03953 36.9861 7.0141C40.9607 10.9887 43.1936 16.3793 43.1936 22.0002C43.1936 27.6211 40.9607 33.0118 36.9861 36.9864C33.0116 40.9609 27.6209 43.1938 22 43.1938C16.3791 43.1938 10.9884 40.9609 7.01386 36.9864C3.03929 33.0118 0.806396 27.6211 0.806396 22.0002ZM22 3.84664C17.1854 3.84664 12.5679 5.75925 9.16346 9.16371C5.759 12.5682 3.8464 17.1856 3.8464 22.0002C3.8464 26.8149 5.759 31.4323 9.16346 34.8368C12.5679 38.2412 17.1854 40.1538 22 40.1538C26.8146 40.1538 31.4321 38.2412 34.8365 34.8368C38.241 31.4323 40.1536 26.8149 40.1536 22.0002C40.1536 17.1856 38.241 12.5682 34.8365 9.16371C31.4321 5.75925 26.8146 3.84664 22 3.84664ZM29.5328 14.4706C29.8327 14.7707 30.0013 15.1776 30.0013 15.6018C30.0013 16.0261 29.8327 16.433 29.5328 16.733L24.2624 22.0002L29.5328 27.2674C29.8332 27.5679 30.002 27.9754 30.002 28.4002C30.002 28.8251 29.8332 29.2326 29.5328 29.533C29.2324 29.8335 28.8249 30.0023 28.4 30.0023C27.9751 30.0023 27.5676 29.8335 27.2672 29.533L22 24.2626L16.7328 29.533C16.584 29.6818 16.4074 29.7998 16.2131 29.8803C16.0187 29.9608 15.8104 30.0023 15.6 30.0023C15.3896 30.0023 15.1813 29.9608 14.9869 29.8803C14.7926 29.7998 14.616 29.6818 14.4672 29.533C14.3184 29.3843 14.2004 29.2077 14.1199 29.0133C14.0394 28.8189 13.998 28.6106 13.998 28.4002C13.998 28.1899 14.0394 27.9815 14.1199 27.7872C14.2004 27.5928 14.3184 27.4162 14.4672 27.2674L19.7376 22.0002L14.4672 16.733C14.1668 16.4326 13.998 16.0251 13.998 15.6002C13.998 15.1754 14.1668 14.7679 14.4672 14.4674C14.7676 14.167 15.1751 13.9982 15.6 13.9982C16.0249 13.9982 16.4324 14.167 16.7328 14.4674L22 19.7378L27.2672 14.4674C27.4158 14.3184 27.5924 14.2002 27.7868 14.1196C27.9812 14.0389 28.1895 13.9974 28.4 13.9974C28.6105 13.9974 28.8188 14.0389 29.0132 14.1196C29.2076 14.2002 29.3842 14.3216 29.5328 14.4706Z" fill="#C30000"/>
</svg>
