<svg width="21" height="22" viewBox="0 0 21 22" fill="none" xmlns="http://www.w3.org/2000/svg">
<path d="M2.5 20C1.95 20 1.479 19.804 1.087 19.412C0.695002 19.02 0.499335 18.5493 0.500002 18V4C0.500002 3.45 0.696002 2.979 1.088 2.587C1.48 2.195 1.95067 1.99933 2.5 2H6.7C6.91667 1.4 7.27934 0.916667 7.788 0.55C8.29667 0.183333 8.86734 0 9.5 0C10.1333 0 10.7043 0.183333 11.213 0.55C11.7217 0.916667 12.084 1.4 12.3 2H16.5C17.05 2 17.521 2.196 17.913 2.588C18.305 2.98 18.5007 3.45067 18.5 4V10.7C18.1833 10.55 17.8583 10.4207 17.525 10.312C17.1917 10.2033 16.85 10.1243 16.5 10.075V4H2.5V18H8.55C8.6 18.3667 8.67934 18.7167 8.788 19.05C8.89667 19.3833 9.02567 19.7 9.175 20H2.5ZM2.5 17V18V4V10.075V10V17ZM4.5 16H8.575C8.625 15.65 8.70434 15.3083 8.813 14.975C8.92167 14.6417 9.04234 14.3167 9.175 14H4.5V16ZM4.5 12H10.6C11.1333 11.5 11.7293 11.0833 12.388 10.75C13.0467 10.4167 13.7507 10.1917 14.5 10.075V10H4.5V12ZM4.5 8H14.5V6H4.5V8ZM9.5 3.25C9.71667 3.25 9.89567 3.179 10.037 3.037C10.1783 2.895 10.2493 2.716 10.25 2.5C10.25 2.28333 10.179 2.10433 10.037 1.963C9.895 1.82167 9.716 1.75067 9.5 1.75C9.28334 1.75 9.10434 1.821 8.963 1.963C8.82167 2.105 8.75067 2.284 8.75 2.5C8.75 2.71667 8.821 2.89567 8.963 3.037C9.105 3.17833 9.284 3.24933 9.5 3.25ZM15.5 22C14.1167 22 12.9373 21.5123 11.962 20.537C10.9867 19.5617 10.4993 18.3827 10.5 17C10.5 15.6167 10.9877 14.4373 11.963 13.462C12.9383 12.4867 14.1173 11.9993 15.5 12C16.8833 12 18.0627 12.4877 19.038 13.463C20.0133 14.4383 20.5007 15.6173 20.5 17C20.5 18.3833 20.0123 19.5627 19.037 20.538C18.0617 21.5133 16.8827 22.0007 15.5 22ZM15 20H16V17.5H18.5V16.5H16V14H15V16.5H12.5V17.5H15V20Z" fill="#DE9800"/>
</svg>
