<svg width="22" height="19" viewBox="0 0 22 19" fill="none" xmlns="http://www.w3.org/2000/svg">
<path d="M21.75 9C21.7508 8.13869 21.5397 7.29042 21.1352 6.52997C20.7308 5.76952 20.1455 5.12025 19.4309 4.63942C18.7163 4.15858 17.8944 3.86094 17.0376 3.77274C16.1808 3.68454 15.3155 3.80849 14.5179 4.13367C13.7204 4.45884 13.0151 4.97525 12.4642 5.63736C11.9133 6.29947 11.5338 7.08694 11.3591 7.93035C11.1844 8.77375 11.2199 9.64719 11.4625 10.4736C11.705 11.3001 12.1472 12.0542 12.75 12.6694V18C12.7499 18.1279 12.7825 18.2537 12.8448 18.3655C12.907 18.4772 12.9968 18.5712 13.1056 18.6384C13.2144 18.7057 13.3386 18.744 13.4663 18.7498C13.5941 18.7555 13.7212 18.7285 13.8356 18.6712L16.5 17.3381L19.1644 18.6712C19.2788 18.7285 19.4059 18.7555 19.5337 18.7498C19.6614 18.744 19.7856 18.7057 19.8944 18.6384C20.0032 18.5712 20.093 18.4772 20.1552 18.3655C20.2175 18.2537 20.2501 18.1279 20.25 18V12.6694C21.2119 11.6903 21.7506 10.3725 21.75 9ZM16.5 5.25C17.2417 5.25 17.9667 5.46993 18.5834 5.88199C19.2001 6.29404 19.6807 6.87971 19.9646 7.56494C20.2484 8.25016 20.3226 9.00416 20.1779 9.73159C20.0333 10.459 19.6761 11.1272 19.1517 11.6517C18.6272 12.1761 17.959 12.5333 17.2316 12.6779C16.5042 12.8226 15.7502 12.7484 15.0649 12.4645C14.3797 12.1807 13.794 11.7001 13.382 11.0834C12.9699 10.4667 12.75 9.74168 12.75 9C12.75 8.00544 13.1451 7.05161 13.8484 6.34835C14.5516 5.64509 15.5054 5.25 16.5 5.25ZM16.8356 15.8287C16.7314 15.7766 16.6165 15.7495 16.5 15.7495C16.3835 15.7495 16.2686 15.7766 16.1644 15.8287L14.25 16.7869V13.7428C14.9531 14.0767 15.7217 14.25 16.5 14.25C17.2783 14.25 18.0469 14.0767 18.75 13.7428V16.7869L16.8356 15.8287ZM11.25 15C11.25 15.1989 11.171 15.3897 11.0303 15.5303C10.8897 15.671 10.6989 15.75 10.5 15.75H2.25C1.85218 15.75 1.47064 15.592 1.18934 15.3107C0.908035 15.0294 0.75 14.6478 0.75 14.25V2.25C0.75 1.85218 0.908035 1.47064 1.18934 1.18934C1.47064 0.908035 1.85218 0.75 2.25 0.75H18.75C19.1478 0.75 19.5294 0.908035 19.8107 1.18934C20.092 1.47064 20.25 1.85218 20.25 2.25C20.25 2.44891 20.171 2.63968 20.0303 2.78033C19.8897 2.92098 19.6989 3 19.5 3C19.3011 3 19.1103 2.92098 18.9697 2.78033C18.829 2.63968 18.75 2.44891 18.75 2.25H2.25V14.25H10.5C10.6989 14.25 10.8897 14.329 11.0303 14.4697C11.171 14.6103 11.25 14.8011 11.25 15ZM9.75 9.75C9.75 9.94891 9.67098 10.1397 9.53033 10.2803C9.38968 10.421 9.19891 10.5 9 10.5H5.25C5.05109 10.5 4.86032 10.421 4.71967 10.2803C4.57902 10.1397 4.5 9.94891 4.5 9.75C4.5 9.55109 4.57902 9.36032 4.71967 9.21967C4.86032 9.07902 5.05109 9 5.25 9H9C9.19891 9 9.38968 9.07902 9.53033 9.21967C9.67098 9.36032 9.75 9.55109 9.75 9.75ZM9.75 6.75C9.75 6.94891 9.67098 7.13968 9.53033 7.28033C9.38968 7.42098 9.19891 7.5 9 7.5H5.25C5.05109 7.5 4.86032 7.42098 4.71967 7.28033C4.57902 7.13968 4.5 6.94891 4.5 6.75C4.5 6.55109 4.57902 6.36032 4.71967 6.21967C4.86032 6.07902 5.05109 6 5.25 6H9C9.19891 6 9.38968 6.07902 9.53033 6.21967C9.67098 6.36032 9.75 6.55109 9.75 6.75Z" fill="#DE9800"/>
</svg>
