<svg width="28" height="24" viewBox="0 0 28 24" fill="none" xmlns="http://www.w3.org/2000/svg">
<path d="M9.478 13.568C9.29541 13.0651 9.19905 12.535 9.193 12C9.19485 10.7257 9.7019 9.50406 10.603 8.60298C11.5041 7.70189 12.7257 7.19484 14 7.19299C14.552 7.19299 15.074 7.30599 15.568 7.47799L17.851 5.19499C16.541 4.64699 15.228 4.28499 14.001 4.28499C6.454 4.28599 0.5 12 0.5 12C0.5 12 2.667 14.79 6.03 17.017L9.478 13.567V13.568ZM21.518 7.18499L18.462 10.241C18.679 10.788 18.807 11.381 18.807 12.001C18.8051 13.2754 18.2981 14.4971 17.3971 15.3984C16.496 16.2996 15.2744 16.8069 14 16.809C13.3968 16.8066 12.7995 16.6895 12.24 16.464L9.77 18.934C11.098 19.414 12.516 19.717 14 19.717C19.77 19.717 27.5 12.002 27.5 12.002C27.5 12.002 24.86 9.37599 21.518 7.18699V7.18499ZM23.542 0.916992L2.855 21.604L4.27 23.02L24.956 2.33199L23.542 0.916992Z" fill="#171717"/>
</svg>
