<svg width="16" height="17" viewBox="0 0 16 17" fill="none" xmlns="http://www.w3.org/2000/svg">
<path d="M5.60006 12.65L8.00006 10.8L10.4001 12.65L9.50006 9.59998L11.7501 7.99998H8.95006L8.00006 4.89998L7.05006 7.99998H4.25006L6.50006 9.59998L5.60006 12.65ZM8.00006 13.3L4.30006 16.125C4.11673 16.275 3.91673 16.346 3.70006 16.338C3.4834 16.33 3.29173 16.2673 3.12506 16.15C2.9584 16.0333 2.8294 15.875 2.73806 15.675C2.64673 15.475 2.6424 15.2583 2.72506 15.025L4.15006 10.4L0.525063 7.82498C0.325063 7.69165 0.200063 7.51665 0.150063 7.29998C0.100063 7.08331 0.108396 6.88331 0.175063 6.69998C0.24173 6.51665 0.358396 6.35398 0.525063 6.21198C0.691729 6.06998 0.891729 5.99931 1.12506 5.99998H5.60006L7.05006 1.19998C7.1334 0.966647 7.26273 0.787314 7.43806 0.661981C7.6134 0.536648 7.80073 0.474314 8.00006 0.474981C8.20006 0.474981 8.38773 0.537648 8.56306 0.662981C8.7384 0.788314 8.8674 0.967314 8.95006 1.19998L10.4001 5.99998H14.8751C15.1084 5.99998 15.3084 6.07098 15.4751 6.21298C15.6417 6.35498 15.7584 6.51731 15.8251 6.69998C15.8917 6.88331 15.9001 7.08331 15.8501 7.29998C15.8001 7.51665 15.6751 7.69165 15.4751 7.82498L11.8501 10.4L13.2751 15.025C13.3584 15.2583 13.3544 15.475 13.2631 15.675C13.1717 15.875 13.0424 16.0333 12.8751 16.15C12.7084 16.2666 12.5167 16.3293 12.3001 16.338C12.0834 16.3466 11.8834 16.2756 11.7001 16.125L8.00006 13.3Z" fill="#DE9800"/>
</svg>
