<svg width="28" height="16" viewBox="0 0 28 16" fill="none" xmlns="http://www.w3.org/2000/svg">
<path d="M14 0.286011C6.454 0.286011 0.5 8.00001 0.5 8.00001C0.5 8.00001 6.454 15.715 14 15.715C19.77 15.715 27.5 8.00001 27.5 8.00001C27.5 8.00001 19.77 0.286011 14 0.286011ZM14 12.806C11.35 12.806 9.193 10.65 9.193 8.00001C9.193 5.35001 11.35 3.19301 14 3.19301C16.65 3.19301 18.807 5.35001 18.807 8.00001C18.807 10.65 16.65 12.806 14 12.806ZM14 5.19401C13.6271 5.18697 13.2566 5.25433 12.91 5.39216C12.5635 5.52999 12.2479 5.73552 11.9817 5.99673C11.7155 6.25794 11.5041 6.5696 11.3597 6.91348C11.2154 7.25736 11.141 7.62656 11.141 7.99951C11.141 8.37246 11.2154 8.74166 11.3597 9.08554C11.5041 9.42942 11.7155 9.74108 11.9817 10.0023C12.2479 10.2635 12.5635 10.469 12.91 10.6069C13.2566 10.7447 13.6271 10.8121 14 10.805C14.7349 10.7911 15.435 10.4895 15.9498 9.96484C16.4646 9.44021 16.753 8.73453 16.753 7.99951C16.753 7.26449 16.4646 6.55881 15.9498 6.03419C15.435 5.50956 14.7349 5.20789 14 5.19401Z" fill="#171717"/>
</svg>
